<svg width="2214" height="952" viewBox="0 0 2214 952" fill="none" xmlns="http://www.w3.org/2000/svg">
<g opacity="0.5" filter="url(#filter0_f_529_47)">
<path d="M206.72 842.44L173.44 681.76C172.573 677.947 173.353 674.567 175.78 671.62C178.38 668.673 181.587 667.2 185.4 667.2H192.94C197.273 667.2 201 668.587 204.12 671.36C207.24 674.133 209.147 677.6 209.84 681.76L231.42 818.52C231.42 818.693 231.507 818.78 231.68 818.78C232.027 818.78 232.2 818.693 232.2 818.52L253 681.76C253.693 677.6 255.6 674.133 258.72 671.36C261.84 668.587 265.567 667.2 269.9 667.2H285.5C289.833 667.2 293.56 668.587 296.68 671.36C299.8 674.133 301.707 677.6 302.4 681.76L323.46 818.52C323.46 818.693 323.547 818.78 323.72 818.78C323.893 818.78 323.98 818.693 323.98 818.52L345.56 681.76C346.253 677.6 348.16 674.133 351.28 671.36C354.4 668.587 358.127 667.2 362.46 667.2H368.96C372.773 667.2 375.893 668.673 378.32 671.62C380.747 674.567 381.613 677.947 380.92 681.76L347.64 842.44C346.773 846.6 344.693 850.067 341.4 852.84C338.107 855.613 334.293 857 329.96 857H316.18C311.847 857 308.033 855.613 304.74 852.84C301.62 850.067 299.713 846.6 299.02 842.44L277.44 705.68C277.44 705.507 277.353 705.42 277.18 705.42C277.007 705.42 276.92 705.507 276.92 705.68L255.34 842.44C254.647 846.6 252.653 850.067 249.36 852.84C246.24 855.613 242.513 857 238.18 857H224.4C220.067 857 216.253 855.613 212.96 852.84C209.667 850.067 207.587 846.6 206.72 842.44ZM485.473 743.38C476.633 743.38 469.786 745.893 464.933 750.92C460.253 755.773 457.306 763.66 456.093 774.58C456.093 775.967 456.786 776.66 458.173 776.66H509.133C510.519 776.66 511.213 775.967 511.213 774.58C510.519 753.78 501.939 743.38 485.473 743.38ZM491.973 859.6C469.266 859.6 451.759 853.707 439.453 841.92C427.319 829.96 421.253 812.453 421.253 789.4C421.253 766.52 426.713 749.1 437.633 737.14C448.553 725.18 464.326 719.2 484.953 719.2C523.433 719.2 543.193 741.04 544.233 784.72C544.406 788.88 542.933 792.347 539.813 795.12C536.693 797.893 533.053 799.28 528.893 799.28H457.913C456.353 799.28 455.746 800.06 456.093 801.62C457.306 813.233 461.119 821.727 467.533 827.1C474.119 832.3 483.653 834.9 496.133 834.9C503.933 834.9 512.599 833.6 522.133 831C525.253 830.133 528.113 830.653 530.713 832.56C533.486 834.467 534.873 837.067 534.873 840.36C534.873 844.347 533.659 847.9 531.233 851.02C528.979 853.967 525.946 855.787 522.133 856.48C512.426 858.56 502.373 859.6 491.973 859.6ZM624.806 857C620.819 857 617.353 855.527 614.406 852.58C611.459 849.633 609.986 846.167 609.986 842.18V682.02C609.986 678.033 611.459 674.567 614.406 671.62C617.353 668.673 620.819 667.2 624.806 667.2H631.306C635.813 667.2 639.973 668.413 643.786 670.84C647.599 673.267 650.373 676.473 652.106 680.46L697.606 778.74C697.606 778.913 697.693 779 697.866 779C698.039 779 698.126 778.913 698.126 778.74L743.626 680.46C745.359 676.473 748.133 673.267 751.946 670.84C755.759 668.413 759.919 667.2 764.426 667.2H771.966C775.953 667.2 779.419 668.673 782.366 671.62C785.313 674.567 786.786 678.033 786.786 682.02V842.18C786.786 846.167 785.313 849.633 782.366 852.58C779.419 855.527 775.953 857 771.966 857H766.246C762.259 857 758.793 855.527 755.846 852.58C752.899 849.633 751.426 846.167 751.426 842.18V729.08C751.426 728.907 751.339 728.82 751.166 728.82C750.993 728.82 750.906 728.907 750.906 729.08L719.706 795.9C717.799 799.887 714.853 803.18 710.866 805.78C707.053 808.207 702.979 809.42 698.646 809.42H697.086C692.753 809.42 688.593 808.207 684.606 805.78C680.793 803.18 677.933 799.887 676.026 795.9L644.826 729.08C644.826 728.907 644.739 728.82 644.566 728.82C644.393 728.82 644.306 728.907 644.306 729.08V842.18C644.306 846.167 642.833 849.633 639.886 852.58C636.939 855.527 633.473 857 629.486 857H624.806ZM902.718 859.6C887.464 859.6 876.371 855.44 869.438 847.12C862.504 838.627 859.038 824.327 859.038 804.22V736.62C859.038 732.633 860.511 729.167 863.458 726.22C866.404 723.273 869.871 721.8 873.858 721.8H878.018C882.004 721.8 885.471 723.273 888.418 726.22C891.364 729.167 892.838 732.633 892.838 736.62V800.58C892.838 812.713 894.484 821.12 897.778 825.8C901.071 830.48 906.618 832.82 914.418 832.82C921.524 832.82 928.111 829.787 934.178 823.72C940.418 817.653 943.538 811.153 943.538 804.22V736.62C943.538 732.633 945.011 729.167 947.958 726.22C950.904 723.273 954.371 721.8 958.358 721.8H963.558C967.544 721.8 970.924 723.273 973.698 726.22C976.644 729.167 978.118 732.633 978.118 736.62V842.18C978.118 846.167 976.644 849.633 973.698 852.58C970.924 855.527 967.544 857 963.558 857H960.178C956.018 857 952.464 855.613 949.518 852.84C946.744 849.893 945.271 846.34 945.098 842.18L944.838 840.36C944.838 840.187 944.751 840.1 944.578 840.1C944.404 840.1 944.231 840.187 944.058 840.36C932.271 853.187 918.491 859.6 902.718 859.6ZM1095.59 802.4C1077.39 798.413 1064.39 792.953 1056.59 786.02C1048.96 779.087 1045.15 770.073 1045.15 758.98C1045.15 746.5 1049.74 736.793 1058.93 729.86C1068.29 722.753 1082.07 719.2 1100.27 719.2C1111.71 719.2 1123.06 720.24 1134.33 722.32C1138.14 723.013 1141.18 724.92 1143.43 728.04C1145.86 730.987 1147.07 734.453 1147.07 738.44C1147.07 741.733 1145.77 744.42 1143.17 746.5C1140.57 748.407 1137.62 748.927 1134.33 748.06C1124.62 745.633 1114.4 744.42 1103.65 744.42C1088.05 744.42 1080.25 748.753 1080.25 757.42C1080.25 761.58 1081.72 765.047 1084.67 767.82C1087.62 770.593 1092.64 772.76 1099.75 774.32C1119.68 778.307 1133.29 783.68 1140.57 790.44C1148.02 797.2 1151.75 807.08 1151.75 820.08C1151.75 832.56 1147.07 842.267 1137.71 849.2C1128.35 856.133 1114.74 859.6 1096.89 859.6C1085.28 859.6 1073.4 858.213 1061.27 855.44C1057.46 854.573 1054.34 852.58 1051.91 849.46C1049.48 846.167 1048.27 842.44 1048.27 838.28C1048.27 834.987 1049.57 832.473 1052.17 830.74C1054.94 829.007 1057.89 828.573 1061.01 829.44C1072.28 832.56 1082.94 834.12 1092.99 834.12C1108.76 834.12 1116.65 829.44 1116.65 820.08C1116.65 815.573 1115.09 812.02 1111.97 809.42C1109.02 806.82 1103.56 804.48 1095.59 802.4ZM1219.62 752.22C1216.16 752.22 1213.21 751.007 1210.78 748.58C1208.36 745.98 1207.14 742.947 1207.14 739.48C1207.14 736.013 1208.36 733.067 1210.78 730.64C1213.21 728.213 1216.16 727 1219.62 727H1232.1C1233.66 727 1234.44 726.22 1234.44 724.66V692.42C1234.44 688.433 1235.83 684.967 1238.6 682.02C1241.55 679.073 1245.02 677.6 1249 677.6H1254.2C1258.19 677.6 1261.66 679.073 1264.6 682.02C1267.55 684.967 1269.02 688.433 1269.02 692.42V724.66C1269.02 726.22 1269.8 727 1271.36 727H1301C1304.47 727 1307.42 728.213 1309.84 730.64C1312.44 733.067 1313.74 736.013 1313.74 739.48C1313.74 742.947 1312.44 745.98 1309.84 748.58C1307.42 751.007 1304.47 752.22 1301 752.22H1271.36C1269.8 752.22 1269.02 752.913 1269.02 754.3V806.82C1269.02 818.087 1270.24 825.367 1272.66 828.66C1275.09 831.953 1280.12 833.6 1287.74 833.6C1291.9 833.6 1295.02 833.427 1297.1 833.08C1300.57 832.733 1303.6 833.513 1306.2 835.42C1308.8 837.327 1310.1 839.927 1310.1 843.22C1310.1 847.033 1308.8 850.5 1306.2 853.62C1303.78 856.567 1300.74 858.213 1297.1 858.56C1289.48 859.253 1283.76 859.6 1279.94 859.6C1263.13 859.6 1251.34 856.047 1244.58 848.94C1237.82 841.66 1234.44 828.747 1234.44 810.2V754.3C1234.44 752.913 1233.66 752.22 1232.1 752.22H1219.62ZM1402.26 857C1398.27 857 1394.8 855.527 1391.86 852.58C1388.91 849.633 1387.44 846.167 1387.44 842.18V682.02C1387.44 678.033 1388.91 674.567 1391.86 671.62C1394.8 668.673 1398.27 667.2 1402.26 667.2H1408.76C1413.26 667.2 1417.42 668.413 1421.24 670.84C1425.05 673.267 1427.82 676.473 1429.56 680.46L1475.06 778.74C1475.06 778.913 1475.14 779 1475.32 779C1475.49 779 1475.58 778.913 1475.58 778.74L1521.08 680.46C1522.81 676.473 1525.58 673.267 1529.4 670.84C1533.21 668.413 1537.37 667.2 1541.88 667.2H1549.42C1553.4 667.2 1556.87 668.673 1559.82 671.62C1562.76 674.567 1564.24 678.033 1564.24 682.02V842.18C1564.24 846.167 1562.76 849.633 1559.82 852.58C1556.87 855.527 1553.4 857 1549.42 857H1543.7C1539.71 857 1536.24 855.527 1533.3 852.58C1530.35 849.633 1528.88 846.167 1528.88 842.18V729.08C1528.88 728.907 1528.79 728.82 1528.62 728.82C1528.44 728.82 1528.36 728.907 1528.36 729.08L1497.16 795.9C1495.25 799.887 1492.3 803.18 1488.32 805.78C1484.5 808.207 1480.43 809.42 1476.1 809.42H1474.54C1470.2 809.42 1466.04 808.207 1462.06 805.78C1458.24 803.18 1455.38 799.887 1453.48 795.9L1422.28 729.08C1422.28 728.907 1422.19 728.82 1422.02 728.82C1421.84 728.82 1421.76 728.907 1421.76 729.08V842.18C1421.76 846.167 1420.28 849.633 1417.34 852.58C1414.39 855.527 1410.92 857 1406.94 857H1402.26ZM1692.91 743.38C1684.07 743.38 1677.22 745.893 1672.37 750.92C1667.69 755.773 1664.74 763.66 1663.53 774.58C1663.53 775.967 1664.22 776.66 1665.61 776.66H1716.57C1717.96 776.66 1718.65 775.967 1718.65 774.58C1717.96 753.78 1709.38 743.38 1692.91 743.38ZM1699.41 859.6C1676.7 859.6 1659.2 853.707 1646.89 841.92C1634.76 829.96 1628.69 812.453 1628.69 789.4C1628.69 766.52 1634.15 749.1 1645.07 737.14C1655.99 725.18 1671.76 719.2 1692.39 719.2C1730.87 719.2 1750.63 741.04 1751.67 784.72C1751.84 788.88 1750.37 792.347 1747.25 795.12C1744.13 797.893 1740.49 799.28 1736.33 799.28H1665.35C1663.79 799.28 1663.18 800.06 1663.53 801.62C1664.74 813.233 1668.56 821.727 1674.97 827.1C1681.56 832.3 1691.09 834.9 1703.57 834.9C1711.37 834.9 1720.04 833.6 1729.57 831C1732.69 830.133 1735.55 830.653 1738.15 832.56C1740.92 834.467 1742.31 837.067 1742.31 840.36C1742.31 844.347 1741.1 847.9 1738.67 851.02C1736.42 853.967 1733.38 855.787 1729.57 856.48C1719.86 858.56 1709.81 859.6 1699.41 859.6ZM1872.48 743.38C1863.64 743.38 1856.79 745.893 1851.94 750.92C1847.26 755.773 1844.31 763.66 1843.1 774.58C1843.1 775.967 1843.79 776.66 1845.18 776.66H1896.14C1897.53 776.66 1898.22 775.967 1898.22 774.58C1897.53 753.78 1888.95 743.38 1872.48 743.38ZM1878.98 859.6C1856.27 859.6 1838.77 853.707 1826.46 841.92C1814.33 829.96 1808.26 812.453 1808.26 789.4C1808.26 766.52 1813.72 749.1 1824.64 737.14C1835.56 725.18 1851.33 719.2 1871.96 719.2C1910.44 719.2 1930.2 741.04 1931.24 784.72C1931.41 788.88 1929.94 792.347 1926.82 795.12C1923.7 797.893 1920.06 799.28 1915.9 799.28H1844.92C1843.36 799.28 1842.75 800.06 1843.1 801.62C1844.31 813.233 1848.13 821.727 1854.54 827.1C1861.13 832.3 1870.66 834.9 1883.14 834.9C1890.94 834.9 1899.61 833.6 1909.14 831C1912.26 830.133 1915.12 830.653 1917.72 832.56C1920.49 834.467 1921.88 837.067 1921.88 840.36C1921.88 844.347 1920.67 847.9 1918.24 851.02C1915.99 853.967 1912.95 855.787 1909.14 856.48C1899.43 858.56 1889.38 859.6 1878.98 859.6ZM1997.84 752.22C1994.37 752.22 1991.42 751.007 1989 748.58C1986.57 745.98 1985.36 742.947 1985.36 739.48C1985.36 736.013 1986.57 733.067 1989 730.64C1991.42 728.213 1994.37 727 1997.84 727H2010.32C2011.88 727 2012.66 726.22 2012.66 724.66V692.42C2012.66 688.433 2014.04 684.967 2016.82 682.02C2019.76 679.073 2023.23 677.6 2027.22 677.6H2032.42C2036.4 677.6 2039.87 679.073 2042.82 682.02C2045.76 684.967 2047.24 688.433 2047.24 692.42V724.66C2047.24 726.22 2048.02 727 2049.58 727H2079.22C2082.68 727 2085.63 728.213 2088.06 730.64C2090.66 733.067 2091.96 736.013 2091.96 739.48C2091.96 742.947 2090.66 745.98 2088.06 748.58C2085.63 751.007 2082.68 752.22 2079.22 752.22H2049.58C2048.02 752.22 2047.24 752.913 2047.24 754.3V806.82C2047.24 818.087 2048.45 825.367 2050.88 828.66C2053.3 831.953 2058.33 833.6 2065.96 833.6C2070.12 833.6 2073.24 833.427 2075.32 833.08C2078.78 832.733 2081.82 833.513 2084.42 835.42C2087.02 837.327 2088.32 839.927 2088.32 843.22C2088.32 847.033 2087.02 850.5 2084.42 853.62C2081.99 856.567 2078.96 858.213 2075.32 858.56C2067.69 859.253 2061.97 859.6 2058.16 859.6C2041.34 859.6 2029.56 856.047 2022.8 848.94C2016.04 841.66 2012.66 828.747 2012.66 810.2V754.3C2012.66 752.913 2011.88 752.22 2010.32 752.22H1997.84Z" fill="#E8DF12"/>
<path d="M180.174 583.919C176.459 569.063 171.683 548.37 165.846 521.84L144.354 434.292L120.475 334.01L56 59.4285H214.401L327.431 607H185.746L180.174 583.919ZM305.144 333.214L364.843 59.4285H528.02L658.562 607H522.448L499.364 511.493L475.485 410.415C465.402 369.56 455.85 329.5 446.829 290.236H442.053L414.99 410.415L406.234 451.006C403.581 462.148 400.927 472.76 398.274 482.841C396.152 492.923 394.029 502.473 391.906 511.493L375.987 580.736L369.619 607H360.863L305.144 333.214ZM626.722 328.439L674.481 59.4285H832.883L743.732 434.292C733.65 475.148 726.751 504.33 723.037 521.84L707.913 583.919L702.341 607H692.789L626.722 328.439Z" fill="#E8DF12"/>
<path d="M1394.6 79.0808C1398.32 93.9374 1403.09 114.631 1408.93 141.16L1430.42 228.708L1454.3 328.99L1518.78 603.572H1360.38L1247.35 56L1389.03 56L1394.6 79.0808ZM1269.63 329.786L1209.94 603.572L1046.76 603.572L916.216 56L1052.33 56L1075.41 151.507L1099.29 252.585C1109.38 293.44 1118.93 333.5 1127.95 372.764H1132.72L1159.79 252.585L1168.54 211.994C1171.2 200.852 1173.85 190.24 1176.5 180.159C1178.63 170.077 1180.75 160.527 1182.87 151.507L1198.79 82.2644L1205.16 56L1213.92 56L1269.63 329.786ZM948.056 334.561L900.297 603.572H741.895L831.046 228.708C841.128 187.852 848.027 158.67 851.741 141.16L866.865 79.0808L872.437 56L881.989 56L948.056 334.561Z" fill="#E8DF12"/>
<path d="M2033.48 79.0808C2037.2 93.9374 2041.97 114.631 2047.81 141.16L2069.3 228.708L2093.18 328.99L2157.66 603.572H1999.25L1886.22 56L2027.91 56L2033.48 79.0808ZM1908.51 329.786L1848.81 603.572L1685.64 603.571L1555.09 56L1691.21 56L1714.29 151.507L1738.17 252.585C1748.25 293.44 1757.8 333.5 1766.83 372.764H1771.6L1798.67 252.585L1807.42 211.994C1810.07 200.852 1812.73 190.24 1815.38 180.159C1817.5 170.077 1819.63 160.527 1821.75 151.507L1837.67 82.2644L1844.04 56L1852.79 56L1908.51 329.786ZM1586.93 334.561L1539.17 603.571H1380.77L1469.92 228.708C1480.01 187.852 1486.9 158.67 1490.62 141.16L1505.74 79.0808L1511.31 56L1520.87 56L1586.93 334.561Z" fill="#E8DF12"/>
</g>
<path d="M206.72 842.44L173.44 681.76C172.573 677.947 173.353 674.567 175.78 671.62C178.38 668.673 181.587 667.2 185.4 667.2H192.94C197.273 667.2 201 668.587 204.12 671.36C207.24 674.133 209.147 677.6 209.84 681.76L231.42 818.52C231.42 818.693 231.507 818.78 231.68 818.78C232.027 818.78 232.2 818.693 232.2 818.52L253 681.76C253.693 677.6 255.6 674.133 258.72 671.36C261.84 668.587 265.567 667.2 269.9 667.2H285.5C289.833 667.2 293.56 668.587 296.68 671.36C299.8 674.133 301.707 677.6 302.4 681.76L323.46 818.52C323.46 818.693 323.547 818.78 323.72 818.78C323.893 818.78 323.98 818.693 323.98 818.52L345.56 681.76C346.253 677.6 348.16 674.133 351.28 671.36C354.4 668.587 358.127 667.2 362.46 667.2H368.96C372.773 667.2 375.893 668.673 378.32 671.62C380.747 674.567 381.613 677.947 380.92 681.76L347.64 842.44C346.773 846.6 344.693 850.067 341.4 852.84C338.107 855.613 334.293 857 329.96 857H316.18C311.847 857 308.033 855.613 304.74 852.84C301.62 850.067 299.713 846.6 299.02 842.44L277.44 705.68C277.44 705.507 277.353 705.42 277.18 705.42C277.007 705.42 276.92 705.507 276.92 705.68L255.34 842.44C254.647 846.6 252.653 850.067 249.36 852.84C246.24 855.613 242.513 857 238.18 857H224.4C220.067 857 216.253 855.613 212.96 852.84C209.667 850.067 207.587 846.6 206.72 842.44ZM485.473 743.38C476.633 743.38 469.786 745.893 464.933 750.92C460.253 755.773 457.306 763.66 456.093 774.58C456.093 775.967 456.786 776.66 458.173 776.66H509.133C510.519 776.66 511.213 775.967 511.213 774.58C510.519 753.78 501.939 743.38 485.473 743.38ZM491.973 859.6C469.266 859.6 451.759 853.707 439.453 841.92C427.319 829.96 421.253 812.453 421.253 789.4C421.253 766.52 426.713 749.1 437.633 737.14C448.553 725.18 464.326 719.2 484.953 719.2C523.433 719.2 543.193 741.04 544.233 784.72C544.406 788.88 542.933 792.347 539.813 795.12C536.693 797.893 533.053 799.28 528.893 799.28H457.913C456.353 799.28 455.746 800.06 456.093 801.62C457.306 813.233 461.119 821.727 467.533 827.1C474.119 832.3 483.653 834.9 496.133 834.9C503.933 834.9 512.599 833.6 522.133 831C525.253 830.133 528.113 830.653 530.713 832.56C533.486 834.467 534.873 837.067 534.873 840.36C534.873 844.347 533.659 847.9 531.233 851.02C528.979 853.967 525.946 855.787 522.133 856.48C512.426 858.56 502.373 859.6 491.973 859.6ZM624.806 857C620.819 857 617.353 855.527 614.406 852.58C611.459 849.633 609.986 846.167 609.986 842.18V682.02C609.986 678.033 611.459 674.567 614.406 671.62C617.353 668.673 620.819 667.2 624.806 667.2H631.306C635.813 667.2 639.973 668.413 643.786 670.84C647.599 673.267 650.373 676.473 652.106 680.46L697.606 778.74C697.606 778.913 697.693 779 697.866 779C698.039 779 698.126 778.913 698.126 778.74L743.626 680.46C745.359 676.473 748.133 673.267 751.946 670.84C755.759 668.413 759.919 667.2 764.426 667.2H771.966C775.953 667.2 779.419 668.673 782.366 671.62C785.313 674.567 786.786 678.033 786.786 682.02V842.18C786.786 846.167 785.313 849.633 782.366 852.58C779.419 855.527 775.953 857 771.966 857H766.246C762.259 857 758.793 855.527 755.846 852.58C752.899 849.633 751.426 846.167 751.426 842.18V729.08C751.426 728.907 751.339 728.82 751.166 728.82C750.993 728.82 750.906 728.907 750.906 729.08L719.706 795.9C717.799 799.887 714.853 803.18 710.866 805.78C707.053 808.207 702.979 809.42 698.646 809.42H697.086C692.753 809.42 688.593 808.207 684.606 805.78C680.793 803.18 677.933 799.887 676.026 795.9L644.826 729.08C644.826 728.907 644.739 728.82 644.566 728.82C644.393 728.82 644.306 728.907 644.306 729.08V842.18C644.306 846.167 642.833 849.633 639.886 852.58C636.939 855.527 633.473 857 629.486 857H624.806ZM902.718 859.6C887.464 859.6 876.371 855.44 869.438 847.12C862.504 838.627 859.038 824.327 859.038 804.22V736.62C859.038 732.633 860.511 729.167 863.458 726.22C866.404 723.273 869.871 721.8 873.858 721.8H878.018C882.004 721.8 885.471 723.273 888.418 726.22C891.364 729.167 892.838 732.633 892.838 736.62V800.58C892.838 812.713 894.484 821.12 897.778 825.8C901.071 830.48 906.618 832.82 914.418 832.82C921.524 832.82 928.111 829.787 934.178 823.72C940.418 817.653 943.538 811.153 943.538 804.22V736.62C943.538 732.633 945.011 729.167 947.958 726.22C950.904 723.273 954.371 721.8 958.358 721.8H963.558C967.544 721.8 970.924 723.273 973.698 726.22C976.644 729.167 978.118 732.633 978.118 736.62V842.18C978.118 846.167 976.644 849.633 973.698 852.58C970.924 855.527 967.544 857 963.558 857H960.178C956.018 857 952.464 855.613 949.518 852.84C946.744 849.893 945.271 846.34 945.098 842.18L944.838 840.36C944.838 840.187 944.751 840.1 944.578 840.1C944.404 840.1 944.231 840.187 944.058 840.36C932.271 853.187 918.491 859.6 902.718 859.6ZM1095.59 802.4C1077.39 798.413 1064.39 792.953 1056.59 786.02C1048.96 779.087 1045.15 770.073 1045.15 758.98C1045.15 746.5 1049.74 736.793 1058.93 729.86C1068.29 722.753 1082.07 719.2 1100.27 719.2C1111.71 719.2 1123.06 720.24 1134.33 722.32C1138.14 723.013 1141.18 724.92 1143.43 728.04C1145.86 730.987 1147.07 734.453 1147.07 738.44C1147.07 741.733 1145.77 744.42 1143.17 746.5C1140.57 748.407 1137.62 748.927 1134.33 748.06C1124.62 745.633 1114.4 744.42 1103.65 744.42C1088.05 744.42 1080.25 748.753 1080.25 757.42C1080.25 761.58 1081.72 765.047 1084.67 767.82C1087.62 770.593 1092.64 772.76 1099.75 774.32C1119.68 778.307 1133.29 783.68 1140.57 790.44C1148.02 797.2 1151.75 807.08 1151.75 820.08C1151.75 832.56 1147.07 842.267 1137.71 849.2C1128.35 856.133 1114.74 859.6 1096.89 859.6C1085.28 859.6 1073.4 858.213 1061.27 855.44C1057.46 854.573 1054.34 852.58 1051.91 849.46C1049.48 846.167 1048.27 842.44 1048.27 838.28C1048.27 834.987 1049.57 832.473 1052.17 830.74C1054.94 829.007 1057.89 828.573 1061.01 829.44C1072.28 832.56 1082.94 834.12 1092.99 834.12C1108.76 834.12 1116.65 829.44 1116.65 820.08C1116.65 815.573 1115.09 812.02 1111.97 809.42C1109.02 806.82 1103.56 804.48 1095.59 802.4ZM1219.62 752.22C1216.16 752.22 1213.21 751.007 1210.78 748.58C1208.36 745.98 1207.14 742.947 1207.14 739.48C1207.14 736.013 1208.36 733.067 1210.78 730.64C1213.21 728.213 1216.16 727 1219.62 727H1232.1C1233.66 727 1234.44 726.22 1234.44 724.66V692.42C1234.44 688.433 1235.83 684.967 1238.6 682.02C1241.55 679.073 1245.02 677.6 1249 677.6H1254.2C1258.19 677.6 1261.66 679.073 1264.6 682.02C1267.55 684.967 1269.02 688.433 1269.02 692.42V724.66C1269.02 726.22 1269.8 727 1271.36 727H1301C1304.47 727 1307.42 728.213 1309.84 730.64C1312.44 733.067 1313.74 736.013 1313.74 739.48C1313.74 742.947 1312.44 745.98 1309.84 748.58C1307.42 751.007 1304.47 752.22 1301 752.22H1271.36C1269.8 752.22 1269.02 752.913 1269.02 754.3V806.82C1269.02 818.087 1270.24 825.367 1272.66 828.66C1275.09 831.953 1280.12 833.6 1287.74 833.6C1291.9 833.6 1295.02 833.427 1297.1 833.08C1300.57 832.733 1303.6 833.513 1306.2 835.42C1308.8 837.327 1310.1 839.927 1310.1 843.22C1310.1 847.033 1308.8 850.5 1306.2 853.62C1303.78 856.567 1300.74 858.213 1297.1 858.56C1289.48 859.253 1283.76 859.6 1279.94 859.6C1263.13 859.6 1251.34 856.047 1244.58 848.94C1237.82 841.66 1234.44 828.747 1234.44 810.2V754.3C1234.44 752.913 1233.66 752.22 1232.1 752.22H1219.62ZM1402.26 857C1398.27 857 1394.8 855.527 1391.86 852.58C1388.91 849.633 1387.44 846.167 1387.44 842.18V682.02C1387.44 678.033 1388.91 674.567 1391.86 671.62C1394.8 668.673 1398.27 667.2 1402.26 667.2H1408.76C1413.26 667.2 1417.42 668.413 1421.24 670.84C1425.05 673.267 1427.82 676.473 1429.56 680.46L1475.06 778.74C1475.06 778.913 1475.14 779 1475.32 779C1475.49 779 1475.58 778.913 1475.58 778.74L1521.08 680.46C1522.81 676.473 1525.58 673.267 1529.4 670.84C1533.21 668.413 1537.37 667.2 1541.88 667.2H1549.42C1553.4 667.2 1556.87 668.673 1559.82 671.62C1562.76 674.567 1564.24 678.033 1564.24 682.02V842.18C1564.24 846.167 1562.76 849.633 1559.82 852.58C1556.87 855.527 1553.4 857 1549.42 857H1543.7C1539.71 857 1536.24 855.527 1533.3 852.58C1530.35 849.633 1528.88 846.167 1528.88 842.18V729.08C1528.88 728.907 1528.79 728.82 1528.62 728.82C1528.44 728.82 1528.36 728.907 1528.36 729.08L1497.16 795.9C1495.25 799.887 1492.3 803.18 1488.32 805.78C1484.5 808.207 1480.43 809.42 1476.1 809.42H1474.54C1470.2 809.42 1466.04 808.207 1462.06 805.78C1458.24 803.18 1455.38 799.887 1453.48 795.9L1422.28 729.08C1422.28 728.907 1422.19 728.82 1422.02 728.82C1421.84 728.82 1421.76 728.907 1421.76 729.08V842.18C1421.76 846.167 1420.28 849.633 1417.34 852.58C1414.39 855.527 1410.92 857 1406.94 857H1402.26ZM1692.91 743.38C1684.07 743.38 1677.22 745.893 1672.37 750.92C1667.69 755.773 1664.74 763.66 1663.53 774.58C1663.53 775.967 1664.22 776.66 1665.61 776.66H1716.57C1717.96 776.66 1718.65 775.967 1718.65 774.58C1717.96 753.78 1709.38 743.38 1692.91 743.38ZM1699.41 859.6C1676.7 859.6 1659.2 853.707 1646.89 841.92C1634.76 829.96 1628.69 812.453 1628.69 789.4C1628.69 766.52 1634.15 749.1 1645.07 737.14C1655.99 725.18 1671.76 719.2 1692.39 719.2C1730.87 719.2 1750.63 741.04 1751.67 784.72C1751.84 788.88 1750.37 792.347 1747.25 795.12C1744.13 797.893 1740.49 799.28 1736.33 799.28H1665.35C1663.79 799.28 1663.18 800.06 1663.53 801.62C1664.74 813.233 1668.56 821.727 1674.97 827.1C1681.56 832.3 1691.09 834.9 1703.57 834.9C1711.37 834.9 1720.04 833.6 1729.57 831C1732.69 830.133 1735.55 830.653 1738.15 832.56C1740.92 834.467 1742.31 837.067 1742.31 840.36C1742.31 844.347 1741.1 847.9 1738.67 851.02C1736.42 853.967 1733.38 855.787 1729.57 856.48C1719.86 858.56 1709.81 859.6 1699.41 859.6ZM1872.48 743.38C1863.64 743.38 1856.79 745.893 1851.94 750.92C1847.26 755.773 1844.31 763.66 1843.1 774.58C1843.1 775.967 1843.79 776.66 1845.18 776.66H1896.14C1897.53 776.66 1898.22 775.967 1898.22 774.58C1897.53 753.78 1888.95 743.38 1872.48 743.38ZM1878.98 859.6C1856.27 859.6 1838.77 853.707 1826.46 841.92C1814.33 829.96 1808.26 812.453 1808.26 789.4C1808.26 766.52 1813.72 749.1 1824.64 737.14C1835.56 725.18 1851.33 719.2 1871.96 719.2C1910.44 719.2 1930.2 741.04 1931.24 784.72C1931.41 788.88 1929.94 792.347 1926.82 795.12C1923.7 797.893 1920.06 799.28 1915.9 799.28H1844.92C1843.36 799.28 1842.75 800.06 1843.1 801.62C1844.31 813.233 1848.13 821.727 1854.54 827.1C1861.13 832.3 1870.66 834.9 1883.14 834.9C1890.94 834.9 1899.61 833.6 1909.14 831C1912.26 830.133 1915.12 830.653 1917.72 832.56C1920.49 834.467 1921.88 837.067 1921.88 840.36C1921.88 844.347 1920.67 847.9 1918.24 851.02C1915.99 853.967 1912.95 855.787 1909.14 856.48C1899.43 858.56 1889.38 859.6 1878.98 859.6ZM1997.84 752.22C1994.37 752.22 1991.42 751.007 1989 748.58C1986.57 745.98 1985.36 742.947 1985.36 739.48C1985.36 736.013 1986.57 733.067 1989 730.64C1991.42 728.213 1994.37 727 1997.84 727H2010.32C2011.88 727 2012.66 726.22 2012.66 724.66V692.42C2012.66 688.433 2014.04 684.967 2016.82 682.02C2019.76 679.073 2023.23 677.6 2027.22 677.6H2032.42C2036.4 677.6 2039.87 679.073 2042.82 682.02C2045.76 684.967 2047.24 688.433 2047.24 692.42V724.66C2047.24 726.22 2048.02 727 2049.58 727H2079.22C2082.68 727 2085.63 728.213 2088.06 730.64C2090.66 733.067 2091.96 736.013 2091.96 739.48C2091.96 742.947 2090.66 745.98 2088.06 748.58C2085.63 751.007 2082.68 752.22 2079.22 752.22H2049.58C2048.02 752.22 2047.24 752.913 2047.24 754.3V806.82C2047.24 818.087 2048.45 825.367 2050.88 828.66C2053.3 831.953 2058.33 833.6 2065.96 833.6C2070.12 833.6 2073.24 833.427 2075.32 833.08C2078.78 832.733 2081.82 833.513 2084.42 835.42C2087.02 837.327 2088.32 839.927 2088.32 843.22C2088.32 847.033 2087.02 850.5 2084.42 853.62C2081.99 856.567 2078.96 858.213 2075.32 858.56C2067.69 859.253 2061.97 859.6 2058.16 859.6C2041.34 859.6 2029.56 856.047 2022.8 848.94C2016.04 841.66 2012.66 828.747 2012.66 810.2V754.3C2012.66 752.913 2011.88 752.22 2010.32 752.22H1997.84Z" fill="url(#paint0_linear_529_47)"/>
<path d="M180.174 583.919C176.459 569.063 171.683 548.37 165.846 521.84L144.354 434.292L120.475 334.01L56 59.4285H214.401L327.431 607H185.746L180.174 583.919ZM305.144 333.214L364.843 59.4285H528.02L658.562 607H522.448L499.364 511.493L475.485 410.415C465.402 369.56 455.85 329.5 446.829 290.236H442.053L414.99 410.415L406.234 451.006C403.581 462.148 400.927 472.76 398.274 482.841C396.152 492.923 394.029 502.473 391.906 511.493L375.987 580.736L369.619 607H360.863L305.144 333.214ZM626.722 328.439L674.481 59.4285H832.883L743.732 434.292C733.65 475.148 726.751 504.33 723.037 521.84L707.913 583.919L702.341 607H692.789L626.722 328.439Z" fill="url(#paint1_linear_529_47)"/>
<path d="M1394.6 79.0808C1398.32 93.9374 1403.09 114.631 1408.93 141.16L1430.42 228.708L1454.3 328.99L1518.78 603.572H1360.38L1247.35 56L1389.03 56L1394.6 79.0808ZM1269.63 329.786L1209.94 603.572L1046.76 603.572L916.216 56L1052.33 56L1075.41 151.507L1099.29 252.585C1109.38 293.44 1118.93 333.5 1127.95 372.764H1132.72L1159.79 252.585L1168.54 211.994C1171.2 200.852 1173.85 190.24 1176.5 180.159C1178.63 170.077 1180.75 160.527 1182.87 151.507L1198.79 82.2644L1205.16 56L1213.92 56L1269.63 329.786ZM948.056 334.561L900.297 603.572H741.895L831.046 228.708C841.128 187.852 848.027 158.67 851.741 141.16L866.865 79.0808L872.437 56L881.989 56L948.056 334.561Z" fill="url(#paint2_linear_529_47)"/>
<path d="M2033.48 79.0808C2037.2 93.9374 2041.97 114.631 2047.81 141.16L2069.3 228.708L2093.18 328.99L2157.66 603.572H1999.25L1886.22 56L2027.91 56L2033.48 79.0808ZM1908.51 329.786L1848.81 603.572L1685.64 603.571L1555.09 56L1691.21 56L1714.29 151.507L1738.17 252.585C1748.25 293.44 1757.8 333.5 1766.83 372.764H1771.6L1798.67 252.585L1807.42 211.994C1810.07 200.852 1812.73 190.24 1815.38 180.159C1817.5 170.077 1819.63 160.527 1821.75 151.507L1837.67 82.2644L1844.04 56L1852.79 56L1908.51 329.786ZM1586.93 334.561L1539.17 603.571H1380.77L1469.92 228.708C1480.01 187.852 1486.9 158.67 1490.62 141.16L1505.74 79.0808L1511.31 56L1520.87 56L1586.93 334.561Z" fill="url(#paint3_linear_529_47)"/>
<defs>
<filter id="filter0_f_529_47" x="0" y="0" width="2213.66" height="915.6" filterUnits="userSpaceOnUse" color-interpolation-filters="sRGB">
<feFlood flood-opacity="0" result="BackgroundImageFix"/>
<feBlend mode="normal" in="SourceGraphic" in2="BackgroundImageFix" result="shape"/>
<feGaussianBlur stdDeviation="28" result="effect1_foregroundBlur_529_47"/>
</filter>
<linearGradient id="paint0_linear_529_47" x1="1136.5" y1="566" x2="1136.5" y2="952" gradientUnits="userSpaceOnUse">
<stop stop-color="#E8DF12"/>
<stop offset="0.5625" stop-color="#F3FF6C"/>
<stop offset="1" stop-color="#F0FD5C"/>
</linearGradient>
<linearGradient id="paint1_linear_529_47" x1="787.389" y1="56" x2="787.389" y2="607" gradientUnits="userSpaceOnUse">
<stop stop-color="#E8DF12"/>
<stop offset="0.5625" stop-color="#F3FF6C"/>
<stop offset="1" stop-color="#F0FD5C"/>
</linearGradient>
<linearGradient id="paint2_linear_529_47" x1="787.389" y1="56" x2="787.389" y2="607" gradientUnits="userSpaceOnUse">
<stop stop-color="#E8DF12"/>
<stop offset="0.5625" stop-color="#F3FF6C"/>
<stop offset="1" stop-color="#F0FD5C"/>
</linearGradient>
<linearGradient id="paint3_linear_529_47" x1="1769.21" y1="56" x2="1769.21" y2="603.572" gradientUnits="userSpaceOnUse">
<stop stop-color="#E8DF12"/>
<stop offset="0.5625" stop-color="#F3FF6C"/>
<stop offset="1" stop-color="#F0FD5C"/>
</linearGradient>
</defs>
</svg>
